<!-- Generated by IcoMoon.io -->
<svg version="1.1" xmlns="http://www.w3.org/2000/svg" width="32" height="32" viewBox="0 0 32 32">
<title>cart</title>
<path d="M29.4 8.9c-0.5-0.6-1.2-0.9-2-0.9h-16.4c-0.6 0-1 0.4-1 1s0.4 1 1 1h16.4c0.2 0 0.4 0.1 0.5 0.2s0.2 0.3 0.1 0.6l-1.5 10.5c0 0.3-0.4 0.6-0.8 0.6h-15.2c-0.4 0-0.8-0.5-0.8-0.9l-1.7-11.6-0.9-4.9c-0.2-1.4-1.4-2.5-2.9-2.5h-1.2c-0.6 0-1 0.5-1 1s0.4 1 1 1h1.2c0.4 0 0.8 0.3 0.9 0.8l0.9 4.9 1.6 11.6c0.2 1.5 1.4 2.7 2.8 2.7h15.2c1.4 0 2.6-1 2.8-2.3l1.6-10.6c0.1-0.8-0.1-1.6-0.6-2.2zM8.1 28c0 1.105 0.895 2 2 2s2-0.895 2-2c0-1.105-0.895-2-2-2s-2 0.895-2 2zM24 28c0 1.105 0.895 2 2 2s2-0.895 2-2c0-1.105-0.895-2-2-2s-2 0.895-2 2z"></path>
</svg>
