<!-- Generated by IcoMoon.io -->
<svg version="1.1" xmlns="http://www.w3.org/2000/svg" width="32" height="32" viewBox="0 0 32 32">
<title>cascades</title>
<path d="M12 15h-6c-1.654 0-3-1.346-3-3v-6c0-1.654 1.346-3 3-3h6c1.654 0 3 1.346 3 3v6c0 1.654-1.346 3-3 3zM6 5c-0.551 0-1 0.449-1 1v6c0 0.551 0.449 1 1 1h6c0.551 0 1-0.449 1-1v-6c0-0.551-0.449-1-1-1h-6zM12 29h-6c-1.654 0-3-1.346-3-3v-6c0-1.654 1.346-3 3-3h6c1.654 0 3 1.346 3 3v6c0 1.654-1.346 3-3 3zM6 19c-0.551 0-1 0.448-1 1v6c0 0.552 0.449 1 1 1h6c0.551 0 1-0.448 1-1v-6c0-0.552-0.449-1-1-1h-6zM26 29h-6c-1.654 0-3-1.346-3-3v-2c0-1.654 1.346-3 3-3h6c1.654 0 3 1.346 3 3v2c0 1.654-1.346 3-3 3zM20 23c-0.552 0-1 0.448-1 1v2c0 0.552 0.448 1 1 1h6c0.552 0 1-0.448 1-1v-2c0-0.552-0.448-1-1-1h-6zM26 19h-6c-1.654 0-3-1.346-3-3v-10c0-1.654 1.346-3 3-3h6c1.654 0 3 1.346 3 3v10c0 1.654-1.346 3-3 3zM20 5c-0.552 0-1 0.449-1 1v10c0 0.551 0.448 1 1 1h6c0.552 0 1-0.449 1-1v-10c0-0.551-0.448-1-1-1h-6z"></path>
</svg>
