<!-- Generated by IcoMoon.io -->
<svg version="1.1" xmlns="http://www.w3.org/2000/svg" width="32" height="32" viewBox="0 0 32 32">
<title>dunpai</title>
<path d="M16 30.005l-0.297-0.115c-9.55-3.691-10.655-8.516-10.655-11.825v-12.635l0.853 0.029c6.638 0.226 9.465-2.77 9.492-2.799l0.608-0.665 0.608 0.665c0.022 0.024 2.701 2.811 8.783 2.811 0 0 0 0 0.001 0 0.231 0 0.468-0.003 0.707-0.012l0.853-0.029v12.635c0 3.308-1.104 8.133-10.655 11.825l-0.297 0.115zM6.696 7.12v10.945c0 1.779 0.001 6.476 9.304 10.171 9.304-3.695 9.304-8.392 9.304-10.171v-10.945c-5.152-0.020-8.116-1.853-9.304-2.8-1.189 0.946-4.153 2.779-9.304 2.8z"></path>
</svg>
