<!-- Generated by IcoMoon.io -->
<svg version="1.1" xmlns="http://www.w3.org/2000/svg" width="32" height="32" viewBox="0 0 32 32">
<title>fanhui</title>
<path d="M29.449 23.102c-0.301 0-0.566-0.212-0.626-0.513-0.009-0.040-0.428-1.953-2.214-3.831-2.275-2.393-5.795-3.709-10.208-3.824v5.198c0 0.24-0.135 0.46-0.349 0.57s-0.471 0.089-0.666-0.052l-12.262-8.889c-0.166-0.12-0.264-0.312-0.264-0.517s0.098-0.397 0.263-0.518l12.262-8.93c0.195-0.142 0.452-0.162 0.667-0.053s0.35 0.329 0.35 0.57v5.519c0.79 0.029 2.168 0.146 3.765 0.57 2.543 0.675 4.654 1.853 6.275 3.5 2.495 2.536 3.722 6.092 3.648 10.57-0.005 0.327-0.256 0.597-0.582 0.626-0.020 0.002-0.039 0.003-0.058 0.003zM15.761 13.646c2.834 0 5.348 0.446 7.47 1.326 1.72 0.713 3.188 1.711 4.362 2.964 0.386 0.412 0.714 0.823 0.993 1.221-0.426-2.592-1.448-4.722-3.057-6.357-3.462-3.519-8.587-3.697-9.579-3.697-0.106 0-0.164 0.002-0.165 0.002-0.174 0.006-0.343-0.058-0.468-0.179s-0.196-0.287-0.196-0.46v-4.896l-10.534 7.671 10.534 7.636v-4.592c0-0.353 0.286-0.64 0.64-0.64z"></path>
</svg>
