<!-- Generated by IcoMoon.io -->
<svg version="1.1" xmlns="http://www.w3.org/2000/svg" width="32" height="32" viewBox="0 0 32 32">
<title>info</title>
<path d="M16 29.938c-7.685 0-13.938-6.252-13.938-13.938 0-7.685 6.253-13.938 13.938-13.938s13.938 6.252 13.938 13.938-6.252 13.938-13.938 13.938zM16 4.062c-6.583 0-11.938 5.355-11.938 11.938s5.355 11.938 11.938 11.938c6.582 0 11.938-5.355 11.938-11.938s-5.356-11.938-11.938-11.938zM14.5 9.5c0-0.828 0.672-1.5 1.5-1.5s1.5 0.672 1.5 1.5v0c0 0.828-0.672 1.5-1.5 1.5s-1.5-0.672-1.5-1.5v0zM16 24c-0.552 0-1-0.447-1-1v-9c0-0.552 0.448-1 1-1s1 0.448 1 1v9c0 0.553-0.448 1-1 1z"></path>
</svg>
