<!-- Generated by IcoMoon.io -->
<svg version="1.1" xmlns="http://www.w3.org/2000/svg" width="32" height="32" viewBox="0 0 32 32">
<title>lock</title>
<path d="M16 24c-0.552 0-1-0.447-1-1v-3c0-0.553 0.448-1 1-1s1 0.447 1 1v3c0 0.553-0.448 1-1 1zM26 30h-20c-1.654 0-3-1.346-3-3v-11c0-1.654 1.346-3 3-3h20c1.654 0 3 1.346 3 3v11c0 1.654-1.346 3-3 3zM6 15c-0.551 0-1 0.449-1 1v11c0 0.552 0.449 1 1 1h20c0.552 0 1-0.448 1-1v-11c0-0.551-0.448-1-1-1h-20zM23 15c-0.553 0-1-0.448-1-1v-4.062c0-3.399-3.195-5.938-6.052-5.938-2.924 0-5.948 2.216-5.948 5.924v4.076c0 0.552-0.448 1-1 1s-1-0.448-1-1v-4.076c0-4.96 4.041-7.924 7.948-7.924 3.809 0 8.052 3.26 8.052 7.938v4.062c0 0.552-0.447 1-1 1z"></path>
</svg>
