<!-- Generated by IcoMoon.io -->
<svg version="1.1" xmlns="http://www.w3.org/2000/svg" width="32" height="32" viewBox="0 0 32 32">
<title>my</title>
<path d="M25 11c0-4.933-4-9-9-9s-9 4.067-9 9c0 3.667 2.2 6.867 5.4 8.267-4.067 1.333-7.4 4.8-8.467 9.267-0.067 0.333 0.133 0.733 0.467 0.8h0.133c0.333 0 0.6-0.2 0.667-0.533 1.2-5.067 5.733-8.8 10.733-8.8h0.067c5 0 9-4.067 9-9zM8.333 11c0-4.2 3.467-7.667 7.667-7.667s7.667 3.467 7.667 7.667-3.467 7.667-7.667 7.667-7.667-3.467-7.667-7.667zM27.933 28.533c-0.733-3-2.467-5.6-4.933-7.333l-0.667-0.467c-0.333-0.2-0.733-0.133-0.933 0.2s-0.133 0.733 0.2 0.933l0.667 0.467c2.2 1.533 3.8 3.867 4.4 6.6 0.067 0.333 0.333 0.533 0.667 0.533h0.133c0.333-0.2 0.533-0.533 0.467-0.933z"></path>
</svg>
