<!-- Generated by IcoMoon.io -->
<svg version="1.1" xmlns="http://www.w3.org/2000/svg" width="32" height="32" viewBox="0 0 32 32">
<title>nopayment</title>
<path d="M12.233 19.235c-0.147 0-0.265-0.119-0.265-0.265v-7.361c0-0.147 0.119-0.265 0.265-0.265s0.265 0.119 0.265 0.265v7.361c0 0.147-0.119 0.265-0.265 0.265zM16.344 15.49h-8.113c-0.147 0-0.265-0.119-0.265-0.265s0.119-0.265 0.265-0.265h8.113c0.146 0 0.265 0.119 0.265 0.265s-0.119 0.265-0.265 0.265zM15.304 11.673h-6.136c-0.146 0-0.265-0.119-0.265-0.265s0.119-0.265 0.265-0.265h6.136c0.147 0 0.265 0.119 0.265 0.265s-0.119 0.265-0.265 0.265zM12.359 11.673c-0.058 0-0.117-0.019-0.166-0.059-0.114-0.092-0.132-0.259-0.040-0.373l2.765-3.432c0.092-0.114 0.259-0.132 0.373-0.040s0.132 0.259 0.040 0.373l-2.765 3.432c-0.052 0.065-0.129 0.099-0.207 0.099zM12.16 11.656c-0.076 0-0.152-0.033-0.205-0.096l-2.819-3.415c-0.093-0.113-0.077-0.28 0.036-0.373s0.28-0.077 0.373 0.036l2.819 3.415c0.093 0.113 0.077 0.28-0.036 0.373-0.049 0.041-0.109 0.061-0.169 0.061zM25.186 23.787h-3.473c-0.177 0-0.32-0.143-0.32-0.32v-3.473c0-0.177 0.143-0.32 0.32-0.32s0.32 0.143 0.32 0.32v3.153h3.153c0.177 0 0.32 0.143 0.32 0.32s-0.143 0.32-0.32 0.32zM22.583 28.026c-2.992 0-5.427-2.435-5.427-5.427s2.434-5.427 5.427-5.427c2.992 0 5.427 2.435 5.427 5.427s-2.434 5.427-5.427 5.427zM22.583 17.811c-2.64 0-4.787 2.148-4.787 4.788s2.147 4.788 4.787 4.788c2.64 0 4.787-2.148 4.787-4.788s-2.147-4.788-4.787-4.788zM15.695 27.962h-8.79c-1.607 0-2.914-1.307-2.914-2.914v-18.16c0-1.607 1.307-2.914 2.914-2.914h18.158c1.606 0 2.913 1.307 2.913 2.914v8.36c0 0.177-0.143 0.32-0.32 0.32s-0.32-0.143-0.32-0.32v-8.36c0-1.254-1.020-2.275-2.274-2.275h-18.158c-1.254 0-2.274 1.020-2.274 2.275v18.16c0 1.254 1.020 2.275 2.274 2.275h8.79c0.177 0 0.32 0.143 0.32 0.32s-0.143 0.32-0.32 0.32z"></path>
</svg>
