<!-- Generated by IcoMoon.io -->
<svg version="1.1" xmlns="http://www.w3.org/2000/svg" width="32" height="32" viewBox="0 0 32 32">
<title>refund</title>
<path d="M30.812 18.437c-0.322-0.447-0.946-0.549-1.396-0.228l-1.779 1.281c0.308-1.121 0.47-2.282 0.47-3.46 0-7.186-5.847-13.032-13.033-13.032-7.187 0-13.033 5.846-13.033 13.032s5.847 13.032 13.033 13.032c2.273 0 4.5-0.597 6.459-1.719 0.105-0.021 0.209-0.055 0.307-0.113 0.561-0.334 1.098-0.712 1.599-1.123 0.426-0.352 0.487-0.981 0.137-1.408-0.352-0.426-0.98-0.488-1.408-0.137-0.392 0.322-0.815 0.613-1.252 0.88-0.067 0.022-0.136 0.032-0.199 0.070-1.699 1.014-3.65 1.55-5.642 1.55-6.083 0-11.033-4.949-11.033-11.032s4.948-11.032 11.032-11.032 11.032 4.949 11.032 11.032c0 1.38-0.256 2.736-0.75 4.006l-1.415-3.397c-0.213-0.511-0.799-0.749-1.308-0.539-0.51 0.212-0.751 0.798-0.538 1.308l2.25 5.402c0.023 0.057 0.059 0.104 0.092 0.155 0.009 0.014 0.010 0.030 0.020 0.044 0.003 0.005 0.009 0.006 0.012 0.011 0.086 0.114 0.195 0.203 0.319 0.272 0.022 0.012 0.042 0.024 0.065 0.034 0.104 0.048 0.214 0.085 0.332 0.095 0.020 0.002 0.038-0.003 0.058-0.002 0.010 0 0.018 0.006 0.026 0.006 0.021 0 0.041-0.008 0.062-0.010 0.075-0.003 0.148-0.014 0.219-0.033 0.016-0.005 0.030-0.011 0.045-0.016 0.081-0.028 0.157-0.066 0.228-0.114 0.010-0.007 0.021-0.009 0.030-0.016l4.731-3.405c0.448-0.321 0.55-0.946 0.228-1.394zM18.961 11.703c0.396-0.384 0.407-1.017 0.023-1.414s-1.016-0.408-1.414-0.023l-2.492 2.41-2.492-2.41c-0.397-0.384-1.031-0.374-1.414 0.023-0.384 0.397-0.374 1.030 0.023 1.414l2.805 2.712v0.585h-2c-0.552 0-1 0.448-1 1s0.448 1 1 1h2v1h-2c-0.552 0-1 0.447-1 1s0.448 1 1 1h2v2.102c0 0.553 0.448 1 1 1s1-0.447 1-1v-2.102h2c0.553 0 1-0.447 1-1s-0.447-1-1-1h-2v-1h2c0.553 0 1-0.448 1-1s-0.447-1-1-1h-2v-0.434l2.961-2.863z"></path>
</svg>
