<!-- Generated by IcoMoon.io -->
<svg version="1.1" xmlns="http://www.w3.org/2000/svg" width="32" height="32" viewBox="0 0 32 32">
<title>right</title>
<path d="M23.783 16.629c0.016-0.031 0.042-0.057 0.056-0.089 0.275-0.572 0.185-1.272-0.302-1.732l-11.039-10.441c-0.602-0.569-1.551-0.542-2.121 0.059-0.569 0.602-0.543 1.551 0.059 2.121l9.905 9.37-9.866 9.509c-0.596 0.575-0.614 1.524-0.039 2.121 0.294 0.306 0.687 0.459 1.080 0.459 0.375 0 0.75-0.14 1.041-0.42l10.939-10.543c0.021-0.021 0.029-0.050 0.050-0.072 0.016-0.015 0.033-0.026 0.049-0.042 0.085-0.089 0.13-0.198 0.188-0.3z"></path>
</svg>
