<!-- Generated by IcoMoon.io -->
<svg version="1.1" xmlns="http://www.w3.org/2000/svg" width="32" height="32" viewBox="0 0 32 32">
<title>shalou</title>
<path d="M26.075 2.875h-20.15c-0.425 0-0.75-0.35-0.75-0.75 0-0.425 0.35-0.75 0.75-0.75h20.15c0.425 0 0.75 0.35 0.75 0.75 0.025 0.4-0.325 0.75-0.75 0.75zM27.075 31.025h-22.125c-0.45 0-0.825-0.375-0.825-0.825s0.375-0.825 0.825-0.825h22.125c0.45 0 0.825 0.375 0.825 0.825s-0.375 0.825-0.825 0.825zM23.95 20.825l-0.025-0.050c-1.275-2.225-2.975-3.675-4.775-4.55 1.8-0.9 3.475-2.325 4.775-4.55l0.025-0.050c1.275-2.2 2.125-5.2 2.275-9.2h-1.475c-0.125 3.7-0.9 6.45-2.075 8.475l-0.025 0.025c-1.45 2.575-3.075 3.95-5.175 4.6l-0.1 0.025h-0.025c-0.050 0.025-0.075 0.050-0.125 0.075l-0.125 0.125v0.025c-0.025 0.025-0.050 0.075-0.075 0.125l-0.025 0.025-0.050 0.175v0.275l0.050 0.175 0.025 0.025c0.025 0.050 0.050 0.075 0.075 0.125v0.025l0.050 0.050v-0.025l0.050 0.025 0.025 0.025c0.025 0.025 0.075 0.050 0.125 0.075h0.025l0.1 0.050c2.125 0.675 3.725 2.025 5.2 4.575l0.025 0.050c0.625 1.050 1.1 2.325 1.475 3.8 0.075 0.425 0.35 1.35 0.4 2.55-1.175-1.050-4.425-1.8-8.325-1.85v-11.55c0.050 0 0.075-0.025 0.125-0.050v-0.025l0.2-0.075h0.050c1.425-0.45 2.55-1.15 3.5-2.075 1-1 1.775-2.225 2.3-3.6 0.15-0.375-0.025-0.8-0.425-0.95-0.375-0.15-0.8 0.025-0.95 0.4v0.025c-0.45 1.15-1.1 2.225-1.95 3.075-0.775 0.75-1.7 1.35-2.875 1.7l-0.025 0.025-0.075 0.025-0.125 0.025-0.075-0.025-0.050-0.025-0.075-0.025c-1.15-0.375-2.125-0.95-2.875-1.7-0.875-0.85-1.5-1.9-1.95-3.075-0.15-0.375-0.575-0.575-0.925-0.425-0.375 0.15-0.55 0.55-0.425 0.95 0.525 1.375 1.275 2.6 2.3 3.6 0.925 0.925 2.075 1.625 3.475 2.075h0.025l0.2 0.075 0.050 0.025c0.025 0.025 0.050 0.025 0.1 0.050v11.55c-3.65 0-6.825 0.625-8.325 1.5 0.050-0.6 0.175-1.25 0.4-2.2 0.375-1.5 0.875-2.75 1.475-3.8l0.025-0.050c1.475-2.55 3.075-3.9 5.225-4.575l0.075-0.050h0.025c0.050-0.025 0.075-0.050 0.125-0.075l0.025-0.025 0.050-0.025v-0.025l0.050-0.050v-0.025c0.025-0.025 0.050-0.075 0.075-0.125v-0.025c0.025-0.050 0.050-0.125 0.050-0.175v-0.25c0-0.050-0.025-0.125-0.050-0.175v-0.025c-0.025-0.050-0.050-0.1-0.075-0.125v-0.025l-0.1-0.1-0.075 0.025c-0.050-0.025-0.075-0.050-0.125-0.075h-0.025l-0.075-0.025c-2.125-0.65-3.75-2.025-5.225-4.6l-0.025-0.025c-1.15-2.025-1.925-4.775-2.075-8.475h-1.475c0.15 4 1 6.975 2.275 9.2l0.025 0.050c1.275 2.225 2.975 3.65 4.775 4.55-1.8 0.875-3.475 2.325-4.775 4.55l-0.025 0.050c-1.2 2.1-2.050 4.9-2.225 8.625h20.4c-0.175-3.75-1-6.55-2.225-8.65z"></path>
</svg>
