<!-- Generated by IcoMoon.io -->
<svg version="1.1" xmlns="http://www.w3.org/2000/svg" width="32" height="32" viewBox="0 0 32 32">
<title>shangchuan</title>
<path d="M15.36 5.184v11.456c0 0.384 0.256 0.64 0.64 0.64s0.64-0.256 0.64-0.64v-11.584l3.456 3.392c0.256 0.256 0.64 0.256 0.896 0s0.256-0.64 0-0.896l-4.352-4.224c0-0.064-0.064-0.192-0.128-0.256-0.128-0.128-0.32-0.192-0.512-0.192s-0.384 0.064-0.512 0.192c-0.064 0.064-0.128 0.128-0.128 0.256l-4.352 4.224c-0.256 0.256-0.256 0.64 0 0.896s0.64 0.256 0.896 0l3.456-3.264zM8.512 13.376c0.384 0 0.64-0.256 0.64-0.64s-0.256-0.64-0.64-0.64h-3.2v1.28h0.128v-1.28c-2.112 0-3.84 1.728-3.84 3.84v9.6c0 2.112 1.728 3.84 3.84 3.84h21.12c2.112 0 3.84-1.728 3.84-3.84v-9.6c0-2.112-1.728-3.84-3.84-3.84h-3.008c-0.384 0-0.64 0.256-0.64 0.64s0.256 0.64 0.64 0.64h3.008c1.408 0 2.56 1.152 2.56 2.56v9.6c0 1.408-1.152 2.56-2.56 2.56h-21.12c-1.408 0-2.56-1.152-2.56-2.56v-9.6c0-1.408 1.152-2.56 2.56-2.56v-1.28h-0.128v1.28h3.2zM12.16 22.080c-0.384 0-0.64 0.256-0.64 0.64s0.256 0.64 0.64 0.64h7.68c0.384 0 0.64-0.256 0.64-0.64s-0.256-0.64-0.64-0.64h-7.68z"></path>
</svg>
