<!-- Generated by IcoMoon.io -->
<svg version="1.1" xmlns="http://www.w3.org/2000/svg" width="52" height="32" viewBox="0 0 52 32">
<title>shouhoufuwu</title>
<path d="M40.151 8.988c0-0.222-0.071-0.384-0.225-0.538-1.743-1.739-3.427-3.423-5.109-5.109l-0.061-0.061c-0.129-0.129-0.276-0.189-0.46-0.188-0.896 0.005-1.791 0.002-2.687 0.002-0.376 0-0.552 0.178-0.552 0.556 0 1.807-0.001 3.614 0.002 5.421 0 0.096-0.022 0.159-0.105 0.22-5.541 3.989-7.044 5.112-8.546 6.237l3.928-2.818c-0.080 0.059-0.129 0.064-0.212 0.002 2.497 1.742 0.977 0.608-0.544-0.524l-4.124-2.932c-0.090-0.066-0.121-0.134-0.121-0.244 0.004-1.792 0.003-3.583 0.002-5.374 0-0.365-0.18-0.544-0.547-0.544-0.896-0.001-1.791 0.003-2.687-0.002-0.191-0.001-0.34 0.062-0.473 0.196-0.594 0.599-1.191 1.195-1.788 1.792-1.134 1.134-2.268 2.269-3.403 3.402-0.115 0.115-0.196 0.238-0.195 0.409 0.001 2.974 0.002 5.947-0.003 8.92-0 0.209 0.065 0.365 0.212 0.512 1.962 1.963 3.919 3.932 5.881 5.895 0.096 0.096 0.132 0.192 0.132 0.327-0.005 1.307 0.005 2.614-0.009 3.921-0.003 0.322 0.234 0.542 0.537 0.541 2.391-0.010 4.782-0.006 7.172-0.006h7.218c0.337 0 0.516-0.18 0.516-0.52 0-1.318 0.002-2.635-0.003-3.953-0.001-0.126 0.039-0.21 0.126-0.297 1.98-1.975 3.957-3.953 5.935-5.929 0.12-0.12 0.193-0.248 0.193-0.424-0.003-2.963-0.006-5.926-0.001-8.889zM38.484 17.561c-1.975 1.973-3.948 3.947-5.925 5.918-0.155 0.154-0.227 0.316-0.225 0.537 0.008 1.088 0.001 2.177 0.007 3.265 0.001 0.134-0.038 0.159-0.164 0.159-2-0.004-4-0.003-5.999-0.003-1.995 0-3.989-0.001-5.984 0.003-0.131 0-0.174-0.023-0.173-0.166 0.007-1.104 0.002-2.208 0.006-3.312 0.001-0.18-0.059-0.317-0.185-0.444-1.975-1.979-3.948-3.962-5.924-5.941-0.079-0.079-0.115-0.156-0.115-0.271 0.004-2.609 0.003-5.218 0-7.827-0-0.114 0.033-0.191 0.113-0.271 1.499-1.495 2.946-2.942 4.392-4.391l0.049-0.050c0.080-0.080 0.157-0.117 0.271-0.114 0.318 0.008 0.636 0.011 0.953-0.001 0.15-0.005 0.199 0.024 0.198 0.19-0.008 1.588-0.002 3.177-0.008 4.765-0.001 0.253 0.089 0.43 0.293 0.58 1.964 1.449 3.924 2.905 5.885 4.359 0.209 0.155 0.345 0.157 0.551 0.004 1.969-1.46 3.938-2.921 5.91-4.378 0.15-0.111 0.211-0.238 0.21-0.422-0.004-1.646-0.001-3.291-0.005-4.937-0.001-0.131 0.032-0.165 0.162-0.161 0.343 0.010 0.687 0.006 1.031 0.001 0.004-0 0.008-0 0.013-0 0.070 0 0.134 0.030 0.178 0.078l0 0c1.501 1.504 3.003 3.006 4.507 4.507 0.061 0.061 0.082 0.122 0.082 0.205-0.002 2.63-0.002 5.26 0.001 7.89-0 0.102-0.042 0.162-0.107 0.227zM30.406 17h-4.436c-1.416 0-2.832-0-4.248 0-0.315 0-0.506 0.191-0.509 0.504-0.002 0.167-0 0.333-0 0.5 0 0.386 0.174 0.558 0.565 0.558h4.311c1.453 0 2.905 0 4.358-0 0.326-0 0.514-0.189 0.517-0.512 0.001-0.167 0-0.333 0-0.5-0-0.375-0.177-0.55-0.556-0.55z"></path>
</svg>
