<!-- Generated by IcoMoon.io -->
<svg version="1.1" xmlns="http://www.w3.org/2000/svg" width="32" height="32" viewBox="0 0 32 32">
<title>shouhuo</title>
<path d="M29.009 8.674l-2.377-4.575c-0.588-1.128-2.043-2.011-3.313-2.011h-14.618c-1.269 0-2.729 0.878-3.322 1.997l-2.376 4.481c-0.513 0.97-0.914 2.586-0.914 3.682v15.054c0 1.438 1.168 2.608 2.608 2.608h22.604c1.438 0 2.608-1.17 2.608-2.608v-14.947c0-1.094-0.396-2.712-0.902-3.682zM4.542 9.381l2.374-4.48c0.297-0.56 1.148-1.073 1.785-1.073h14.618c0.633 0 1.477 0.513 1.771 1.075l2.378 4.573c0.112 0.217 0.217 0.496 0.314 0.795h-23.588c0.105-0.335 0.221-0.65 0.348-0.89zM28.172 27.303c0 0.479-0.389 0.869-0.869 0.869h-22.604c-0.481 0-0.869-0.391-0.869-0.869v-15.054c0-0.070 0.014-0.161 0.020-0.239h24.294c0.010 0.115 0.029 0.245 0.029 0.346v14.947zM23.31 16.798l-4.38 4.678-1.768-1.764c-0.34-0.34-0.89-0.34-1.229 0s-0.34 0.89 0 1.229l2.384 2.378c0.17 0.17 0.391 0.255 0.613 0.255 0.121 0 0.239-0.031 0.353-0.081 0.127-0.044 0.246-0.112 0.345-0.216l4.952-5.29c0.328-0.35 0.309-0.9-0.041-1.229-0.35-0.326-0.9-0.309-1.23 0.041zM13.408 18.068h-5.218c-0.479 0-0.869 0.389-0.869 0.869s0.391 0.869 0.869 0.869h5.218c0.481 0 0.869-0.389 0.869-0.869s-0.389-0.869-0.87-0.869zM10.769 21.777h-2.608c-0.481 0-0.869 0.391-0.869 0.869 0 0.482 0.389 0.869 0.869 0.869h2.608c0.481 0 0.869-0.387 0.869-0.869 0-0.479-0.389-0.869-0.869-0.869z"></path>
</svg>
