<!-- Generated by IcoMoon.io -->
<svg version="1.1" xmlns="http://www.w3.org/2000/svg" width="32" height="32" viewBox="0 0 32 32">
<title>tianwuliyoutuihuo2</title>
<path d="M2.774 26.414c0.001-0.022 0.002-0.043 0.003-0.064-0.002 0.021-0.003 0.043-0.003 0.064zM14.451 24.306c0.433 0.126 0.887-0.122 1.013-0.556l4.483-15.106c0.015-0.046 0.025-0.093 0.032-0.141 0-0.002 0.001-0.004 0.001-0.006 0.001-0.011 0.003-0.021 0.003-0.032 0-0.004 0.001-0.009 0.001-0.013 0.001-0.008 0.001-0.017 0.001-0.025 0-0.006 0-0.012 0-0.019 0-0.005 0-0.009 0-0.014 0-0.003-0-0.005-0-0.008-0-0.006-0-0.013-0-0.019-0-0.008-0.001-0.015-0.001-0.023-0-0.005-0.001-0.010-0.001-0.015-0.001-0.009-0.002-0.018-0.003-0.027-0-0.003-0.001-0.005-0.001-0.008-0.045-0.369-0.335-0.661-0.703-0.71-0.001-0-0.003-0-0.004-0-0.011-0.001-0.022-0.003-0.033-0.004-0.004-0-0.009-0.001-0.013-0.001-0.008-0.001-0.017-0.001-0.025-0.001-0.007-0-0.013-0-0.020-0-0.004-0-0.009-0-0.013-0h-8.797c-0.451 0-0.817 0.366-0.817 0.817s0.366 0.817 0.817 0.817h7.702l-4.179 14.083c-0.126 0.433 0.123 0.887 0.556 1.013zM29.265 11.597c-1.537-5.874-6.611-10.435-13.006-11.020-8.16-0.746-15.38 5.264-16.126 13.424s5.264 15.38 13.424 16.126c6.392 0.585 12.206-2.977 14.784-8.47 0.059-0.1 0.097-0.215 0.109-0.338 0.041-0.449-0.289-0.845-0.738-0.886-0.334-0.030-0.639 0.145-0.79 0.421-0 0-0 0-0 0s-0 0.001-0.001 0.001c-0.015 0.027-0.028 0.056-0.040 0.085-2.105 4.5-6.681 7.618-11.977 7.618-7.294 0-13.207-5.913-13.207-13.207s5.913-13.207 13.207-13.207c6.12 0 11.267 4.163 12.766 9.811l-2.363 0.532 3.248 2.395c0.013 0.011 0.027 0.021 0.041 0.030 0.165 0.115 0.376 0.164 0.589 0.116s0.382-0.182 0.482-0.357l1.932-3.602-2.334 0.526z"></path>
</svg>
