<!-- Generated by IcoMoon.io -->
<svg version="1.1" xmlns="http://www.w3.org/2000/svg" width="32" height="32" viewBox="0 0 32 32">
<title>tianmaoshunfengbaoyou</title>
<path d="M15.984 2.077c-7.656 0-13.863 6.207-13.863 13.864s6.207 13.863 13.863 13.863 13.863-6.206 13.863-13.863c-0-7.656-6.207-13.864-13.863-13.864M15.984 28.408c-6.886 0-12.468-5.582-12.468-12.468s5.582-12.468 12.468-12.468 12.468 5.582 12.468 12.468c0 6.886-5.582 12.468-12.468 12.468M24.101 10.909c-3.493-1.585-7.019 0-7.019 0v11.352h2.005v-9.346c2.005-1.326 5.013 0 5.013 0v-2.006zM21.093 15.151c-0.198 0.205-0.308 0.491-0.297 0.777h2.123c0.010-0.286-0.099-0.572-0.298-0.777-0.197-0.204-0.48-0.325-0.764-0.325s-0.567 0.12-0.764 0.325M8.381 18.865v2.264c2.022 1.698 7.31 1.342 7.31-2.361 0-3.638-5.288-3.978-5.288-5.757 0-1.067 2.054-1.926 4.576-0.292v-1.94c-0.946-0.946-6.825-1.682-6.825 2.264 0 3.784 5.466 3.606 5.466 5.563 0 2.166-3.121 2.215-5.24 0.258"></path>
</svg>
