<!-- Generated by IcoMoon.io -->
<svg version="1.1" xmlns="http://www.w3.org/2000/svg" width="32" height="32" viewBox="0 0 32 32">
<title>tijiaochenggong</title>
<path d="M23.154 21.286c-0.39 0-0.704 0.313-0.704 0.704v2.766c0 0.179-0.157 0.317-0.336 0.317h-13.733c-0.179 0-0.323-0.141-0.323-0.317v-18.149c0-0.179 0.147-0.339 0.323-0.339h13.733c0.179 0 0.336 0.16 0.336 0.339v6.508c0 0.39 0.313 0.704 0.704 0.704s0.704-0.313 0.704-0.704v-6.508c0-0.956-0.784-1.746-1.743-1.746h-13.733c-0.956 0-1.73 0.79-1.73 1.746v18.149c0 0.956 0.774 1.724 1.73 1.724h13.733c0.956 0 1.743-0.768 1.743-1.724v-2.766c0-0.39-0.313-0.704-0.704-0.704zM26.387 13.573v0c-0.224-0.224-0.588-0.224-0.816 0l-8.731 8.734-3.070-3.070c-0.224-0.224-0.588-0.224-0.816 0v0c-0.224 0.224-0.224 0.588 0 0.816l3.483 3.48c0.224 0.224 0.588 0.224 0.816 0v0c0.019-0.019 0.038-0.042 0.054-0.064l9.083-9.083c0.224-0.224 0.224-0.588-0.003-0.812zM19.252 9.466h-8.187c-0.265 0-0.48 0.214-0.48 0.48s0.214 0.48 0.48 0.48h8.187c0.265 0 0.48-0.214 0.48-0.48s-0.214-0.48-0.48-0.48zM19.668 13.368c0-0.265-0.214-0.48-0.48-0.48h-8.187c-0.265 0-0.48 0.214-0.48 0.48s0.214 0.48 0.48 0.48h8.187c0.265 0 0.48-0.214 0.48-0.48zM11.065 16.566c-0.265 0-0.48 0.214-0.48 0.48s0.214 0.48 0.48 0.48h5.757c0.265 0 0.48-0.214 0.48-0.48s-0.214-0.48-0.48-0.48h-5.757z"></path>
</svg>
