<!-- Generated by IcoMoon.io -->
<svg version="1.1" xmlns="http://www.w3.org/2000/svg" width="32" height="32" viewBox="0 0 32 32">
<title>unlock</title>
<path d="M16 24c-0.552 0-1-0.447-1-1v-3c0-0.553 0.448-1 1-1s1 0.447 1 1v3c0 0.553-0.448 1-1 1zM26 30h-20c-1.654 0-3-1.346-3-3v-12c0-1.654 1.346-3 3-3h20c1.654 0 3 1.346 3 3v12c0 1.654-1.346 3-3 3zM6 14c-0.551 0-1 0.449-1 1v12c0 0.552 0.449 1 1 1h20c0.552 0 1-0.448 1-1v-12c0-0.551-0.448-1-1-1h-20zM9 13c-0.552 0-1-0.448-1-1v-2.021c0-5.002 4.231-7.992 8.322-7.992 3.146 0 6.21 1.871 7.626 4.656 0.25 0.492 0.054 1.094-0.438 1.345-0.493 0.25-1.095 0.053-1.345-0.438-1.083-2.13-3.431-3.562-5.843-3.562-3.108-0.001-6.322 2.24-6.322 5.991v2.021c0 0.552-0.448 1-1 1z"></path>
</svg>
