<!-- Generated by IcoMoon.io -->
<svg version="1.1" xmlns="http://www.w3.org/2000/svg" width="32" height="32" viewBox="0 0 32 32">
<title>weixiuoff</title>
<path d="M14.652 5.539c-0.153 0.034-0.268 0.163-0.28 0.322l-0 0.001-0.527 7.391c-0.018 0.25-0.126 0.471-0.29 0.636l-8.861 8.861c-1.259 1.259-1.259 3.301 0 4.561s3.301 1.259 4.561 0l8.858-8.858c0.165-0.165 0.386-0.272 0.633-0.29l0.003-0 7.395-0.527c0.159-0.012 0.289-0.127 0.322-0.278l0-0.002 1.66-7.738-3.116 3.116c-0.236 0.236-0.562 0.382-0.921 0.382-0.104 0-0.205-0.012-0.303-0.035l0.009 0.002-3.501-0.81c-0.385-0.091-0.68-0.396-0.756-0.779l-0.001-0.006-0.639-3.32c-0.015-0.074-0.023-0.159-0.023-0.246 0-0.36 0.146-0.686 0.382-0.921l3.124-3.124-7.729 1.666zM10.316 28.37c-1.845 1.845-4.837 1.845-6.682 0s-1.845-4.837 0-6.682l8.729-8.729 0.514-7.204c0.059-0.823 0.654-1.509 1.46-1.682l8.448-1.821c0.092-0.021 0.198-0.033 0.307-0.033 0.403 0 0.767 0.163 1.031 0.427v0c0.444 0.444 0.444 1.163 0 1.607l-3.731 3.731 0.558 2.898 3.078 0.712 3.718-3.718c0.444-0.444 1.163-0.444 1.607 0 0.264 0.264 0.427 0.629 0.427 1.032 0 0.108-0.012 0.214-0.034 0.316l0.002-0.010-1.814 8.455c-0.173 0.807-0.859 1.403-1.683 1.462l-7.209 0.514-8.726 8.726z"></path>
</svg>
