<!-- Generated by IcoMoon.io -->
<svg version="1.1" xmlns="http://www.w3.org/2000/svg" width="32" height="32" viewBox="0 0 32 32">
<title>xiangshangyuanjiantou</title>
<path d="M15.995 29.967c1.889 0 3.722-0.37 5.448-1.1 1.667-0.705 3.163-1.714 4.448-2.999s2.294-2.782 2.999-4.448c0.73-1.726 1.1-3.559 1.1-5.448s-0.37-3.722-1.1-5.448c-0.705-1.667-1.714-3.163-2.999-4.448s-2.782-2.294-4.448-2.999c-1.726-0.73-3.559-1.1-5.448-1.1s-3.722 0.37-5.448 1.1c-1.667 0.705-3.163 1.714-4.448 2.999s-2.294 2.782-2.999 4.448c-0.73 1.726-1.1 3.559-1.1 5.448s0.37 3.722 1.1 5.448c0.705 1.667 1.714 3.163 2.999 4.448s2.782 2.294 4.448 2.999c1.726 0.73 3.559 1.1 5.448 1.1zM15.963 13.622l-5.173 5.173c-0.153 0.153-0.357 0.237-0.574 0.237s-0.42-0.084-0.573-0.237c-0.153-0.153-0.237-0.357-0.237-0.573s0.084-0.42 0.237-0.574l5.747-5.747c0.316-0.316 0.831-0.316 1.147 0l5.747 5.747c0.153 0.153 0.237 0.357 0.237 0.574s-0.084 0.42-0.238 0.573c-0.153 0.153-0.357 0.237-0.573 0.237s-0.42-0.084-0.573-0.237l-5.173-5.173z"></path>
</svg>
