<!-- Generated by IcoMoon.io -->
<svg version="1.1" xmlns="http://www.w3.org/2000/svg" width="32" height="32" viewBox="0 0 32 32">
<title>yanzhengma</title>
<path d="M16.001 32c3.186-1.078 6.17-3.143 8.332-6.144 1.704-2.361 3.069-5.299 4.056-8.741 1.664-5.799 1.685-10.965 1.685-11.183 0.003-0.494-0.347-0.903-0.815-0.951-0.074-0.006-7.538-0.821-12.726-4.799-0.145-0.113-0.331-0.182-0.532-0.182s-0.387 0.068-0.534 0.183l0.002-0.001c-5.16 3.955-12.652 4.793-12.726 4.799-0.468 0.046-0.818 0.458-0.818 0.951 0 0.218 0.018 5.384 1.685 11.183 0.987 3.435 2.349 6.377 4.056 8.741 2.162 2.997 5.15 5.065 8.333 6.144M28.246 6.773l-0.003 0.052c-0.089 1.887-0.412 5.663-1.581 9.738-2.051 7.146-5.631 11.692-10.641 13.511l-0.018 0.006-0.019-0.006c-4.994-1.815-8.571-6.345-10.628-13.466-1.224-4.237-1.519-8.254-1.593-9.786l-0.003-0.052 0.046-0.007c2.171-0.334 7.704-1.454 12.163-4.624l0.028-0.023 0.031 0.023c4.466 3.169 9.998 4.289 12.17 4.627l0.050 0.006zM21.115 11.334l-6.584 7.115-3.808-3.336c-0.187-0.159-0.432-0.256-0.7-0.256h-0c-0.001 0-0.002 0-0.003 0-0.326 0-0.619 0.146-0.816 0.375l-0.001 0.001c-0.385 0.45-0.333 1.135 0.121 1.52l4.676 4.079c0.191 0.161 0.454 0.256 0.718 0.256 0.033 0 0.066 0 0.099-0.004 0.304-0.033 0.567-0.188 0.742-0.415l0.002-0.003 7.276-8.020c0.137-0.177 0.22-0.402 0.22-0.646 0-0.054-0.004-0.106-0.012-0.158l0.001 0.006c-0.036-0.286-0.187-0.538-0.414-0.714-0.48-0.366-1.157-0.274-1.516 0.198z"></path>
</svg>
