<!-- Generated by IcoMoon.io -->
<svg version="1.1" xmlns="http://www.w3.org/2000/svg" width="32" height="32" viewBox="0 0 32 32">
<title>yifukuan</title>
<path d="M24.175 27.476c0.183 0.169 0.468 0.16 0.641-0.018l5.519-5.696c0.177-0.182 0.172-0.473-0.010-0.65s-0.473-0.172-0.65 0.010l-5.519 5.696 0.641-0.019-3.34-3.070c-0.187-0.172-0.478-0.16-0.65 0.027s-0.16 0.478 0.027 0.65l3.34 3.070zM17.876 15.798v-0.005c0.317 0 0.574-0.258 0.574-0.575s-0.257-0.574-0.574-0.574l-2.654-0 2.583-3.036-0.004-0.004c0.237-0.21 0.258-0.573 0.048-0.81-0.211-0.238-0.574-0.259-0.811-0.049l-2.434 2.832-2.491-2.956c-0.237-0.211-0.6-0.189-0.811 0.049-0.21 0.237-0.189 0.6 0.048 0.81l-0.004 0.004 2.721 3.133v0.027l-2.734 0c-0.317 0-0.574 0.258-0.574 0.575s0.257 0.574 0.574 0.574v0.003l2.734 0.002v1.165l-2.735 0c-0.317 0-0.574 0.258-0.574 0.575 0 0.318 0.257 0.575 0.574 0.575v0.002l2.735 0.002v1.352h0.003c0 0.316 0.257 0.573 0.574 0.573s0.574-0.257 0.574-0.573h0.003v-1.352l2.653 0v-0.005c0.317 0 0.574-0.258 0.574-0.575 0-0.318-0.257-0.575-0.574-0.575l-2.653-0v-1.165l2.654 0zM19.29 26.428h-13.545c-0.737 0-1.654-0.917-1.654-1.654v0-18.518c0-0.737 0.917-1.654 1.654-1.654h17.656c0.737 0 1.654 0.917 1.654 1.654v0 13.374h1.014v-0.139h0c0-1.424 0-2.867-0-3.976s0-2.552 0-3.976h-0v-5.417c0-1.4-1.135-2.535-2.535-2.535h-17.923c-1.4 0-2.535 1.135-2.535 2.535v5.417h-0c0 1.424 0 2.867 0 3.976s0 2.552-0 3.976h0v5.417c0 1.4 1.135 2.535 2.535 2.535h13.678v-1.014z"></path>
</svg>
