<!-- Generated by IcoMoon.io -->
<svg version="1.1" xmlns="http://www.w3.org/2000/svg" width="32" height="32" viewBox="0 0 32 32">
<title>yunshupeisong</title>
<path d="M24.381 10.494h-5.266v-1.961c0-0.922-0.445-1.634-1.28-1.634h-14.32c-0.836 0-1.515 0.75-1.515 1.673v12.406c0 0.922 0.481 1.609 1.317 1.609h3.621c0 0 0.448 3.268 3.621 3.268 3.41 0 3.95-3.074 3.95-3.268h3.292c0.027 0-0.027 0.002 0 0v0h1.975c0 0 0.329 0 0.329 0 0.217 2.164 1.725 3.283 3.95 3.268 3.944-0.026 3.621-3.595 3.621-3.595h1.317c0.855 0 0.987-0.183 0.987-0.981v-5.229l-5.596-5.556zM10.557 24.875c-1.256-0.012-2.633-1.129-2.633-2.615 0-1.574 1.162-2.836 2.633-2.942 1.573-0.112 2.977 1.326 2.977 2.9-0.074 1.959-1.646 2.671-2.977 2.657zM18.127 21.607h-3.621c-0.454-1.883-1.926-3.268-3.95-3.268s-3.166 1.386-3.621 3.268h-3.95v-13.727h15.141v13.727zM24.052 24.875c-1.577 0-2.942-1.083-2.942-2.657s1.433-2.881 2.613-2.9c2.079-0.033 2.962 1.368 2.962 2.942s-1.056 2.615-2.633 2.615v0zM27.672 21.28c-0.053-1.383-1.45-3.006-3.95-2.942-2.076 0.054-3.621 1.648-3.621 3.268h-0.987c0.010-0.077 0-0.574 0-0.654v-9.478h4.937l4.937 4.902v4.903h-1.317z"></path>
</svg>
